{
  "accessors": [
    {
      "bufferView": 2,
      "componentType": 5126,
      "count": 65532,
      "max": [
        0.62697464227676392,
        4.8182759284973145,
        3.6257362365722656
      ],
      "min": [
        -5.4122204780578613,
        -4.9261341094970703,
        0.15182042121887207
      ],
      "type": "VEC3"
    },
    {
      "bufferView": 2,
      "byteOffset": 786384,
      "componentType": 5126,
      "count": 65532,
      "max": [
        0.99997341632843018,
        0.99999779462814331,
        0.9999997615814209
      ],
      "min": [
        -0.9999997615814209,
        -0.99999964237213135,
        -0.99999982118606567
      ],
      "type": "VEC3"
    },
    {
      "bufferView": 1,
      "componentType": 5126,
      "count": 65532,
      "max": [
        0.99975097179412842,
        0.99975597858428955
      ],
      "min": [
        0.00024399999529123306,
        0.00025199999799951911
      ],
      "type": "VEC2"
    },
    {
      "bufferView": 0,
      "componentType": 5125,
      "count": 298590,
      "max": [
        65531
      ],
      "min": [
        0
      ],
      "type": "SCALAR"
    },
    {
      "bufferView": 2,
      "byteOffset": 1572768,
      "componentType": 5126,
      "count": 65532,
      "max": [
        0.63316446542739868,
        4.2682657241821289,
        3.5357215404510498
      ],
      "min": [
        -5.4179887771606445,
        -4.9493327140808105,
        0.11641892045736313
      ],
      "type": "VEC3"
    },
    {
      "bufferView": 2,
      "byteOffset": 2359152,
      "componentType": 5126,
      "count": 65532,
      "max": [
        0.99997973442077637,
        0.99999994039535522,
        1
      ],
      "min": [
        -0.99999868869781494,
        -0.99999946355819702,
        -0.99999982118606567
      ],
      "type": "VEC3"
    },
    {
      "bufferView": 1,
      "byteOffset": 524256,
      "componentType": 5126,
      "count": 65532,
      "max": [
        0.99974799156188965,
        0.99975597858428955
      ],
      "min": [
        0.00024399999529123306,
        0.00024399999529123306
      ],
      "type": "VEC2"
    },
    {
      "bufferView": 0,
      "byteOffset": 1194360,
      "componentType": 5125,
      "count": 229470,
      "max": [
        65531
      ],
      "min": [
        0
      ],
      "type": "SCALAR"
    },
    {
      "bufferView": 2,
      "byteOffset": 3145536,
      "componentType": 5126,
      "count": 25230,
      "max": [
        0.63630384206771851,
        4.2552666664123535,
        3.6781771183013916
      ],
      "min": [
        -5.4386253356933594,
        -4.9260087013244629,
        0.15350542962551117
      ],
      "type": "VEC3"
    },
    {
      "bufferView": 2,
      "byteOffset": 3448296,
      "componentType": 5126,
      "count": 25230,
      "max": [
        0.99999552965164185,
        0.99999815225601196,
        1
      ],
      "min": [
        -0.99999982118606567,
        -0.99999839067459106,
        -0.99999797344207764
      ],
      "type": "VEC3"
    },
    {
      "bufferView": 1,
      "byteOffset": 1048512,
      "componentType": 5126,
      "count": 25230,
      "max": [
        0.99975597858428955,
        0.99975597858428955
      ],
      "min": [
        0.00024399999529123306,
        0.00025799998547881842
      ],
      "type": "VEC2"
    },
    {
      "bufferView": 0,
      "byteOffset": 2112240,
      "componentType": 5125,
      "count": 77337,
      "max": [
        25229
      ],
      "min": [
        0
      ],
      "type": "SCALAR"
    },
    {
      "bufferView": 2,
      "byteOffset": 3751056,
      "componentType": 5126,
      "count": 65532,
      "max": [
        0.64445805549621582,
        4.8212409019470215,
        3.5221176147460938
      ],
      "min": [
        -5.416297435760498,
        -4.9474167823791504,
        0.1269848644733429
      ],
      "type": "VEC3"
    },
    {
      "bufferView": 2,
      "byteOffset": 4537440,
      "componentType": 5126,
      "count": 65532,
      "max": [
        1,
        0.99999970197677612,
        0.9999995231628418
      ],
      "min": [
        -0.99999868869781494,
        -1,
        -0.99999850988388062
      ],
      "type": "VEC3"
    },
    {
      "bufferView": 1,
      "byteOffset": 1250352,
      "componentType": 5126,
      "count": 65532,
      "max": [
        0.99975401163101196,
        1.8493649959564209
      ],
      "min": [
        0.00024399999529123306,
        1.0002470016479492
      ],
      "type": "VEC2"
    },
    {
      "bufferView": 0,
      "byteOffset": 2421588,
      "componentType": 5125,
      "count": 245772,
      "max": [
        65531
      ],
      "min": [
        0
      ],
      "type": "SCALAR"
    },
    {
      "bufferView": 2,
      "byteOffset": 5323824,
      "componentType": 5126,
      "count": 36590,
      "max": [
        0.65470707416534424,
        4.6389226913452148,
        3.6781771183013916
      ],
      "min": [
        -5.4353499412536621,
        -4.9346227645874023,
        0.15297690033912659
      ],
      "type": "VEC3"
    },
    {
      "bufferView": 2,
      "byteOffset": 5762904,
      "componentType": 5126,
      "count": 36590,
      "max": [
        0.99999594688415527,
        0.99999886751174927,
        0.99999988079071045
      ],
      "min": [
        -0.99999797344207764,
        -0.99999839067459106,
        -0.99997347593307495
      ],
      "type": "VEC3"
    },
    {
      "bufferView": 1,
      "byteOffset": 1774608,
      "componentType": 5126,
      "count": 36590,
      "max": [
        0.99968200922012329,
        1.8249510526657104
      ],
      "min": [
        0.00024399999529123306,
        1.0002729892730713
      ],
      "type": "VEC2"
    },
    {
      "bufferView": 0,
      "byteOffset": 3404676,
      "componentType": 5125,
      "count": 118044,
      "max": [
        36589
      ],
      "min": [
        0
      ],
      "type": "SCALAR"
    },
    {
      "bufferView": 2,
      "byteOffset": 6201984,
      "componentType": 5126,
      "count": 65532,
      "max": [
        0.64428359270095825,
        4.8168020248413086,
        3.5274102687835693
      ],
      "min": [
        -5.4308629035949707,
        -4.9460716247558594,
        0.15112373232841492
      ],
      "type": "VEC3"
    },
    {
      "bufferView": 2,
      "byteOffset": 6988368,
      "componentType": 5126,
      "count": 65532,
      "max": [
        0.99999970197677612,
        1,
        1
      ],
      "min": [
        -0.99999791383743286,
        -0.99999946355819702,
        -0.99999922513961792
      ],
      "type": "VEC3"
    },
    {
      "bufferView": 1,
      "byteOffset": 2067328,
      "componentType": 5126,
      "count": 65532,
      "max": [
        1.9997299909591675,
        0.99975597858428955
      ],
      "min": [
        1.0002440214157104,
        0.00028499998734332621
      ],
      "type": "VEC2"
    },
    {
      "bufferView": 0,
      "byteOffset": 3876852,
      "componentType": 5125,
      "count": 237090,
      "max": [
        65531
      ],
      "min": [
        0
      ],
      "type": "SCALAR"
    },
    {
      "bufferView": 2,
      "byteOffset": 7774752,
      "componentType": 5126,
      "count": 65533,
      "max": [
        0.63963901996612549,
        4.2380247116088867,
        3.6781771183013916
      ],
      "min": [
        -5.4096007347106934,
        -4.9493327140808105,
        0.1269848644733429
      ],
      "type": "VEC3"
    },
    {
      "bufferView": 2,
      "byteOffset": 8561148,
      "componentType": 5126,
      "count": 65533,
      "max": [
        0.99999940395355225,
        1,
        0.99999922513961792
      ],
      "min": [
        -0.99999481439590454,
        -0.99999982118606567,
        -0.99999195337295532
      ],
      "type": "VEC3"
    },
    {
      "bufferView": 1,
      "byteOffset": 2591584,
      "componentType": 5126,
      "count": 65533,
      "max": [
        1.9997420310974121,
        0.99975597858428955
      ],
      "min": [
        1.0002440214157104,
        0.0002460000105202198
      ],
      "type": "VEC2"
    },
    {
      "bufferView": 0,
      "byteOffset": 4825212,
      "componentType": 5125,
      "count": 214806,
      "max": [
        65532
      ],
      "min": [
        0
      ],
      "type": "SCALAR"
    },
    {
      "bufferView": 2,
      "byteOffset": 9347544,
      "componentType": 5126,
      "count": 28588,
      "max": [
        0.66532588005065918,
        4.8169493675231934,
        3.5177567005157471
      ],
      "min": [
        -5.4420442581176758,
        -4.9074835777282715,
        0.15112373232841492
      ],
      "type": "VEC3"
    },
    {
      "bufferView": 2,
      "byteOffset": 9690600,
      "componentType": 5126,
      "count": 28588,
      "max": [
        0.99999594688415527,
        0.99999994039535522,
        0.9999995231628418
      ],
      "min": [
        -0.99999982118606567,
        -0.99999731779098511,
        -0.99998867511749268
      ],
      "type": "VEC3"
    },
    {
      "bufferView": 1,
      "byteOffset": 3115848,
      "componentType": 5126,
      "count": 28588,
      "max": [
        1.9997450113296509,
        0.99975597858428955
      ],
      "min": [
        1.0002440214157104,
        0.00028499998734332621
      ],
      "type": "VEC2"
    },
    {
      "bufferView": 0,
      "byteOffset": 5684436,
      "componentType": 5125,
      "count": 78846,
      "max": [
        28587
      ],
      "min": [
        0
      ],
      "type": "SCALAR"
    }
  ],
  "asset": {
    "extras": {
      "author": "HagaeusBygghantverk (https://sketchfab.com/HagaeusBygghantverk)",
      "license": "CC-BY-4.0 (http://creativecommons.org/licenses/by/4.0/)",
      "source": "https://sketchfab.com/3d-models/tottieska-malmgarden-zoomlens-and-autofocus-62f0f93bf67341ffb6f33a9916e450fa",
      "title": "Tottieska malmgården, Zoomlens and autofocus"
    },
    "generator": "Sketchfab-8.84.0",
    "version": "2.0"
  },
  "bufferViews": [
    {
      "buffer": 0,
      "byteLength": 5999820,
      "byteOffset": 0,
      "name": "floatBufferViews",
      "target": 34963
    },
    {
      "buffer": 0,
      "byteLength": 3344552,
      "byteOffset": 5999820,
      "byteStride": 8,
      "name": "floatBufferViews",
      "target": 34962
    },
    {
      "buffer": 0,
      "byteLength": 10033656,
      "byteOffset": 9344372,
      "byteStride": 12,
      "name": "floatBufferViews",
      "target": 34962
    }
  ],
  "buffers": [
    {
      "byteLength": 19378028,
      "uri": "scene.bin"
    }
  ],
  "extensionsUsed": [
    "KHR_materials_unlit"
  ],
  "images": [
    {
      "uri": "textures/tex_u1_v1_baseColor.jpeg"
    },
    {
      "uri": "textures/tex_u1_v2_baseColor.jpeg"
    },
    {
      "uri": "textures/tex_u2_v1_baseColor.jpeg"
    }
  ],
  "materials": [
    {
      "doubleSided": false,
      "emissiveFactor": [
        0,
        0,
        0
      ],
      "extensions": {
        "KHR_materials_unlit": {}
      },
      "name": "tex_u1_v1",
      "pbrMetallicRoughness": {
        "baseColorFactor": [
          1,
          1,
          1,
          1
        ],
        "baseColorTexture": {
          "index": 0,
          "texCoord": 0
        },
        "metallicFactor": 0,
        "roughnessFactor": 1
      }
    },
    {
      "doubleSided": false,
      "emissiveFactor": [
        0,
        0,
        0
      ],
      "extensions": {
        "KHR_materials_unlit": {}
      },
      "name": "tex_u1_v2",
      "pbrMetallicRoughness": {
        "baseColorFactor": [
          1,
          1,
          1,
          1
        ],
        "baseColorTexture": {
          "index": 1,
          "texCoord": 0
        },
        "metallicFactor": 0,
        "roughnessFactor": 1
      }
    },
    {
      "doubleSided": false,
      "emissiveFactor": [
        0,
        0,
        0
      ],
      "extensions": {
        "KHR_materials_unlit": {}
      },
      "name": "tex_u2_v1",
      "pbrMetallicRoughness": {
        "baseColorFactor": [
          1,
          1,
          1,
          1
        ],
        "baseColorTexture": {
          "index": 2,
          "texCoord": 0
        },
        "metallicFactor": 0,
        "roughnessFactor": 1
      }
    }
  ],
  "meshes": [
    {
      "primitives": [
        {
          "attributes": {
            "NORMAL": 1,
            "POSITION": 0,
            "TEXCOORD_0": 2
          },
          "indices": 3,
          "material": 0,
          "mode": 4
        }
      ]
    },
    {
      "primitives": [
        {
          "attributes": {
            "NORMAL": 5,
            "POSITION": 4,
            "TEXCOORD_0": 6
          },
          "indices": 7,
          "material": 0,
          "mode": 4
        }
      ]
    },
    {
      "primitives": [
        {
          "attributes": {
            "NORMAL": 9,
            "POSITION": 8,
            "TEXCOORD_0": 10
          },
          "indices": 11,
          "material": 0,
          "mode": 4
        }
      ]
    },
    {
      "primitives": [
        {
          "attributes": {
            "NORMAL": 13,
            "POSITION": 12,
            "TEXCOORD_0": 14
          },
          "indices": 15,
          "material": 1,
          "mode": 4
        }
      ]
    },
    {
      "primitives": [
        {
          "attributes": {
            "NORMAL": 17,
            "POSITION": 16,
            "TEXCOORD_0": 18
          },
          "indices": 19,
          "material": 1,
          "mode": 4
        }
      ]
    },
    {
      "primitives": [
        {
          "attributes": {
            "NORMAL": 21,
            "POSITION": 20,
            "TEXCOORD_0": 22
          },
          "indices": 23,
          "material": 2,
          "mode": 4
        }
      ]
    },
    {
      "primitives": [
        {
          "attributes": {
            "NORMAL": 25,
            "POSITION": 24,
            "TEXCOORD_0": 26
          },
          "indices": 27,
          "material": 2,
          "mode": 4
        }
      ]
    },
    {
      "primitives": [
        {
          "attributes": {
            "NORMAL": 29,
            "POSITION": 28,
            "TEXCOORD_0": 30
          },
          "indices": 31,
          "material": 2,
          "mode": 4
        }
      ]
    }
  ],
  "nodes": [
    {
      "children": [
        1
      ],
      "name": "RootNode (gltf orientation matrix)",
      "rotation": [
        -0.70710678118654746,
        -0,
        -0,
        0.70710678118654757
      ]
    },
    {
      "children": [
        2
      ],
      "name": "RootNode (model correction matrix)"
    },
    {
      "children": [
        3,
        4,
        5,
        6,
        7,
        8,
        9,
        10
      ],
      "name": "model.obj.cleaner.materialmerger.gles"
    },
    {
      "mesh": 0,
      "name": ""
    },
    {
      "mesh": 1,
      "name": ""
    },
    {
      "mesh": 2,
      "name": ""
    },
    {
      "mesh": 3,
      "name": ""
    },
    {
      "mesh": 4,
      "name": ""
    },
    {
      "mesh": 5,
      "name": ""
    },
    {
      "mesh": 6,
      "name": ""
    },
    {
      "mesh": 7,
      "name": ""
    }
  ],
  "samplers": [
    {
      "magFilter": 9729,
      "minFilter": 9987,
      "wrapS": 10497,
      "wrapT": 10497
    }
  ],
  "scene": 0,
  "scenes": [
    {
      "name": "OSG_Scene",
      "nodes": [
        0
      ]
    }
  ],
  "textures": [
    {
      "sampler": 0,
      "source": 0
    },
    {
      "sampler": 0,
      "source": 1
    },
    {
      "sampler": 0,
      "source": 2
    }
  ]
}

