{"accessors" : [{"bufferView" : 0, "byteOffset" : 0, "componentType" : 5123, "count" : 36, "type" : "SCALAR", "max" : [23], "min" : [0]}, {"bufferView" : 1, "byteOffset" : 0, "componentType" : 5126, "count" : 24, "type" : "VEC3", "max" : [0.003927119076251984, 0.06627418100833893, 0.0552956759929657], "min" : [-0.003927119076251984, -0.06627418100833893, -0.0552956759929657], "name" : "POSITION"}, {"bufferView" : 1, "byteOffset" : 12, "componentType" : 5126, "count" : 24, "type" : "VEC3", "max" : [1.0000044107437134, 1.0000044107437134, 1.0000044107437134], "min" : [-1.0000044107437134, -1.0000044107437134, -1.0000044107437134], "name" : "NORMAL"}, {"bufferView" : 1, "byteOffset" : 24, "componentType" : 5126, "count" : 24, "type" : "VEC2", "max" : [0.875, 1], "min" : [0.125, 0], "name" : "TEXCOORD_0"}, {"bufferView" : 0, "byteOffset" : 72, "componentType" : 5123, "count" : 6, "type" : "SCALAR", "max" : [3], "min" : [0]}, {"bufferView" : 2, "byteOffset" : 0, "componentType" : 5126, "count" : 4, "type" : "VEC3", "max" : [1, 0, 1], "min" : [-1, 0, -1], "name" : "POSITION"}, {"bufferView" : 2, "byteOffset" : 12, "componentType" : 5126, "count" : 4, "type" : "VEC3", "max" : [0, 1.0000044107437134, -0], "min" : [0, 1.0000044107437134, -0], "name" : "NORMAL"}, {"bufferView" : 2, "byteOffset" : 24, "componentType" : 5126, "count" : 4, "type" : "VEC2", "max" : [1, 1], "min" : [0, 0], "name" : "TEXCOORD_0"}], "asset" : {"generator" : "Aspose.3D 21.4", "version" : "2.0"}, "buffers" : [{"uri" : "buffer.bin", "byteLength" : 1440}], "bufferViews" : [{"buffer" : 0, "byteOffset" : 0, "byteLength" : 84, "target" : 34963}, {"buffer" : 0, "byteOffset" : 88, "byteLength" : 1152, "byteStride" : 32, "target" : 34962}, {"buffer" : 0, "byteOffset" : 1244, "byteLength" : 192, "byteStride" : 32, "target" : 34962}], "materials" : [{"pbrMetallicRoughness" : {"baseColorFactor" : [0.13758409023284912, 0.13758409023284912, 0.13758409023284912, 1], "metallicFactor" : 0, "roughnessFactor" : 0.5}, "emissiveFactor" : [0, 0, 0], "alphaMode" : "OPAQUE", "doubleSided" : true}, {"pbrMetallicRoughness" : {"baseColorFactor" : [0, 0, 0, 1], "metallicFactor" : 0, "roughnessFactor" : 0.5}, "emissiveFactor" : [0, 0, 0], "alphaMode" : "OPAQUE", "doubleSided" : true}, {"pbrMetallicRoughness" : {"baseColorFactor" : [0.5209956765174866, 0.11193244159221649, 0.04666507616639137, 1], "metallicFactor" : 0, "roughnessFactor" : 0.5}, "emissiveFactor" : [0, 0, 0], "alphaMode" : "OPAQUE", "doubleSided" : true}, {"pbrMetallicRoughness" : {"baseColorFactor" : [0, 0, 0, 1], "metallicFactor" : 0, "roughnessFactor" : 0.5}, "emissiveFactor" : [0, 0, 0], "alphaMode" : "OPAQUE", "doubleSided" : true}, {"pbrMetallicRoughness" : {"baseColorFactor" : [0, 0, 0, 1], "metallicFactor" : 0, "roughnessFactor" : 0.5}, "emissiveFactor" : [0, 0, 0], "alphaMode" : "OPAQUE", "doubleSided" : true}, {"pbrMetallicRoughness" : {"baseColorFactor" : [0.5209956765174866, 0.11193244159221649, 0.04666507616639137, 1], "metallicFactor" : 0, "roughnessFactor" : 0.5}, "emissiveFactor" : [0, 0, 0], "alphaMode" : "OPAQUE", "doubleSided" : true}, {"pbrMetallicRoughness" : {"baseColorFactor" : [0.0699782744050026, 0.0699782744050026, 0.0699782744050026, 1], "metallicFactor" : 0, "roughnessFactor" : 0.5}, "emissiveFactor" : [0, 0, 0], "alphaMode" : "OPAQUE", "doubleSided" : true}, {"pbrMetallicRoughness" : {"baseColorFactor" : [0.476990282535553, 0.43554964661598206, 0.43554964661598206, 1], "metallicFactor" : 0, "roughnessFactor" : 0.5}, "emissiveFactor" : [0, 0, 0], "alphaMode" : "OPAQUE", "doubleSided" : true}, {"pbrMetallicRoughness" : {"baseColorFactor" : [0, 0, 0, 1], "metallicFactor" : 0, "roughnessFactor" : 0.5}, "emissiveFactor" : [0, 0, 0], "alphaMode" : "OPAQUE", "doubleSided" : true}, {"pbrMetallicRoughness" : {"baseColorFactor" : [0.8000000715255737, 0.08757257461547852, 0.026180850341916084, 1], "metallicFactor" : 0, "roughnessFactor" : 0.5}, "emissiveFactor" : [0, 0, 0], "alphaMode" : "OPAQUE", "doubleSided" : true}, {"pbrMetallicRoughness" : {"baseColorFactor" : [0.08714026212692261, 0.08714026212692261, 0.08714026212692261, 1], "metallicFactor" : 0, "roughnessFactor" : 0.5}, "emissiveFactor" : [0, 0, 0], "alphaMode" : "OPAQUE", "doubleSided" : true}, {"pbrMetallicRoughness" : {"baseColorFactor" : [0, 0, 0, 1], "metallicFactor" : 0, "roughnessFactor" : 0.5}, "emissiveFactor" : [0, 0, 0], "alphaMode" : "OPAQUE", "doubleSided" : true}, {"pbrMetallicRoughness" : {"baseColorFactor" : [0, 0, 0, 1], "metallicFactor" : 0, "roughnessFactor" : 0.5}, "emissiveFactor" : [0, 0, 0], "alphaMode" : "OPAQUE", "doubleSided" : true}, {"pbrMetallicRoughness" : {"baseColorFactor" : [0.5209956765174866, 0.11193244159221649, 0.04666507616639137, 1], "metallicFactor" : 0, "roughnessFactor" : 0.5}, "emissiveFactor" : [0, 0, 0], "alphaMode" : "OPAQUE", "doubleSided" : true}, {"pbrMetallicRoughness" : {"baseColorFactor" : [0.800000011920929, 0.800000011920929, 0.800000011920929, 1], "metallicFactor" : 0, "roughnessFactor" : 0.4000000059604645}, "emissiveFactor" : [0, 0, 0], "alphaMode" : "OPAQUE", "doubleSided" : true}], "meshes" : [{"primitives" : [{"attributes" : {"POSITION" : 1, "NORMAL" : 2, "TEXCOORD_0" : 3}, "indices" : 0, "material" : 0, "mode" : 4}]}, {"primitives" : [{"attributes" : {"POSITION" : 1, "NORMAL" : 2, "TEXCOORD_0" : 3}, "indices" : 0, "material" : 1, "mode" : 4}]}, {"primitives" : [{"attributes" : {"POSITION" : 1, "NORMAL" : 2, "TEXCOORD_0" : 3}, "indices" : 0, "material" : 2, "mode" : 4}]}, {"primitives" : [{"attributes" : {"POSITION" : 1, "NORMAL" : 2, "TEXCOORD_0" : 3}, "indices" : 0, "material" : 3, "mode" : 4}]}, {"primitives" : [{"attributes" : {"POSITION" : 1, "NORMAL" : 2, "TEXCOORD_0" : 3}, "indices" : 0, "material" : 4, "mode" : 4}]}, {"primitives" : [{"attributes" : {"POSITION" : 1, "NORMAL" : 2, "TEXCOORD_0" : 3}, "indices" : 0, "material" : 5, "mode" : 4}]}, {"primitives" : [{"attributes" : {"POSITION" : 1, "NORMAL" : 2, "TEXCOORD_0" : 3}, "indices" : 0, "material" : 6, "mode" : 4}]}, {"primitives" : [{"attributes" : {"POSITION" : 1, "NORMAL" : 2, "TEXCOORD_0" : 3}, "indices" : 0, "material" : 7, "mode" : 4}]}, {"primitives" : [{"attributes" : {"POSITION" : 1, "NORMAL" : 2, "TEXCOORD_0" : 3}, "indices" : 0, "material" : 8, "mode" : 4}]}, {"primitives" : [{"attributes" : {"POSITION" : 1, "NORMAL" : 2, "TEXCOORD_0" : 3}, "indices" : 0, "material" : 9, "mode" : 4}]}, {"primitives" : [{"attributes" : {"POSITION" : 1, "NORMAL" : 2, "TEXCOORD_0" : 3}, "indices" : 0, "material" : 10, "mode" : 4}]}, {"primitives" : [{"attributes" : {"POSITION" : 1, "NORMAL" : 2, "TEXCOORD_0" : 3}, "indices" : 0, "material" : 11, "mode" : 4}]}, {"primitives" : [{"attributes" : {"POSITION" : 1, "NORMAL" : 2, "TEXCOORD_0" : 3}, "indices" : 0, "material" : 12, "mode" : 4}]}, {"primitives" : [{"attributes" : {"POSITION" : 1, "NORMAL" : 2, "TEXCOORD_0" : 3}, "indices" : 0, "material" : 13, "mode" : 4}]}, {"primitives" : [{"attributes" : {"POSITION" : 5, "NORMAL" : 6, "TEXCOORD_0" : 7}, "indices" : 4, "material" : 14, "mode" : 4}]}], "nodes" : [{"matrix" : [6.099999904632568, 0, 0, 0, 0, 3.6999998092651367, 0, 0, 0, 0, 0.44999998807907104, 0, -0.07398372888565063, 0.20582890510559082, 0.003711126744747162, 1], "mesh" : 0, "name" : "Cube"}, {"matrix" : [2.3499999046325684, 0, 0, 0, 0, 1.9900000095367432, 0, 0, 0, 0, 1, 0, -0.1551295816898346, 0.009402990341186523, 0.019390568137168884, 1], "mesh" : 1, "name" : "Cube.001"}, {"matrix" : [1.5000001192092896, 0, 0, 0, 0, 1.4900000095367432, 0, 0, 0, 0, 0.2800000309944153, 0, -0.18184107542037964, 0.11747178435325623, -0.11115936934947968, 1], "mesh" : 2, "name" : "Cube.002"}, {"matrix" : [0.6499999761581421, 0, 0, 0, 0, 1.5899999141693115, 0, 0, 0, 0, 0.8700000047683716, 0, 0.020634442567825317, 0.12968997657299042, 0.05081219971179962, 1], "mesh" : 3, "name" : "Cube.003"}, {"matrix" : [0.6800000071525574, 0, 0, 0, 0, 0.8500000238418579, 0, 0, 0, 0, 0.23000001907348633, 0, 0.16133034229278564, 0.051301851868629456, 0.38103413581848145, 1], "mesh" : 4, "name" : "Cube.004"}, {"matrix" : [1.7999999523162842, 0, 0, 0, 0, 1.4199999570846558, 0, 0, 0, 0, 1, 0, 0.11654534935951233, 0.10896982997655869, 0.285261332988739, 1], "mesh" : 5, "name" : "Cube.005"}, {"matrix" : [2.0799999237060547, 0, 0, 0, 0, 2.2200000286102295, 0, 0, 0, 0, 1.1799999475479126, 0, 0.14719393849372864, 0.3439837098121643, -0.10389907658100128, 1], "mesh" : 6, "name" : "Cube.006"}, {"matrix" : [1.290000081062317, 0, 0, 0, 0, 3.259999990463257, 0, 0, 0, 0, 1.7599997520446777, 0, 0.005639076232910156, 0.2428269386291504, -0.1212359219789505, 1], "mesh" : 7, "name" : "Cube.007"}, {"matrix" : [1.190000057220459, 0, 0, 0, 0, 1.4600000381469727, 0, 0, 0, 0, 1, 0, -0.007814347743988037, 0.2578760087490082, 0.1360059231519699, 1], "mesh" : 8, "name" : "Cube.008"}, {"matrix" : [1.559999942779541, 0, 0, 0, 0, 1.809999942779541, 0, 0, 0, 0, 1, 0, 0.05539199709892273, 0.2511316239833832, 0.047532930970191956, 1], "mesh" : 9, "name" : "Cube.009"}, {"matrix" : [1.4600000381469727, 0, 0, 0, 0, 1.6999999284744263, 0, 0, 0, 0, 1.4100000858306885, 0, -0.20711417496204376, 0.15841710567474365, 0.11423708498477936, 1], "mesh" : 10, "name" : "Cube.011"}, {"matrix" : [1.2799999713897705, 0, 0, 0, 0, 1.8599998950958252, 0, 0, 0, 0, 0.9900000095367432, 0, -0.10608077049255371, 0.22820869088172913, 0.1834406703710556, 1], "mesh" : 11, "name" : "Cube.012"}, {"matrix" : [2.059999942779541, 0, 0, 0, 0, 2.2199997901916504, 0, 0, 0, 0, 0.9900000095367432, 0, -0.24726738035678864, 0.430448979139328, 0.183440700173378, 1], "mesh" : 12, "name" : "Cube.014"}, {"matrix" : [1.5399999618530273, 0, 0, 0, 0, 1.1399999856948853, 0, 0, 0, 0, 0.9800000190734863, 0, 0.18268680572509766, 0.2908588945865631, 0.285261332988739, 1], "mesh" : 13, "name" : "Cube.015"}, {"matrix" : [1.5457597970962524, 0, 0, 0, 0, 1, 0, 0, 0, 0, 1.5319067239761353, 0, 0, -0.5348243117332458, 0, 1], "mesh" : 14, "name" : "Plane"}], "scene" : 0, "scenes" : [{"nodes" : [0, 1, 2, 3, 4, 5, 6, 7, 8, 9, 10, 11, 12, 13, 14]}]}